HIERARCHY
ROOT root
{
	OFFSET	0	13.1	24.9
	CHANNELS 6  Xposition Yposition Zposition Xrotation Yrotation Zrotation
	JOINT spine_1
	{
		OFFSET	0	9.99999	0
		CHANNELS 3  Xrotation Yrotation Zrotation
		JOINT spine_2
		{
			OFFSET	0	112	-10
			CHANNELS 3  Xrotation Yrotation Zrotation
			JOINT spine_3
			{
				OFFSET	0	206.5	19.3
				CHANNELS 3  Xrotation Yrotation Zrotation
				JOINT spine_4
				{
					OFFSET	0	110.4	14.6
					CHANNELS 3  Xrotation Yrotation Zrotation
					JOINT neck_1
					{
						OFFSET	0	71.8	-50.3
						CHANNELS 3  Xrotation Yrotation Zrotation
						JOINT neck_2
						{
							OFFSET	0	86.2	-25.8
							CHANNELS 3  Xrotation Yrotation Zrotation
							JOINT head_ee
							{
								OFFSET	0	179.8	-8.7
								CHANNELS 3  Xrotation Yrotation Zrotation
								End Site
								{
									OFFSET	1	0	0
								}
							}
						}
					}
					JOINT left_clavicle
					{
						OFFSET	-43.2	22.4	-70.8
						CHANNELS 3  Xrotation Yrotation Zrotation
						JOINT left_shoulder
						{
							OFFSET	-93.9	-5.79999	48.7
							CHANNELS 3  Xrotation Yrotation Zrotation
							JOINT left_elbow
							{
								OFFSET	-291.4	-30.8	15.2
								CHANNELS 3  Xrotation Yrotation Zrotation
								JOINT left_lowarm_twist
								{
									OFFSET	-110.7	-3.89999	13.6
									CHANNELS 3  Xrotation Yrotation Zrotation
									JOINT left_hand
									{
										OFFSET	-110.7	-3.89999	13.6
										CHANNELS 3  Xrotation Yrotation Zrotation
										JOINT left_ee
										{
											OFFSET	-80.8	-5.10001	12.1
											CHANNELS 3  Xrotation Yrotation Zrotation
											End Site
											{
												OFFSET	1	0	0
											}
										}
									}
								}
							}
						}
					}
					JOINT right_clavicle
					{
						OFFSET	43.2	22.4	-70.8
						CHANNELS 3  Xrotation Yrotation Zrotation
						JOINT right_shoulder
						{
							OFFSET	93.9	-5.79999	48.7
							CHANNELS 3  Xrotation Yrotation Zrotation
							JOINT right_elbow
							{
								OFFSET	291.4	-30.8	15.2
								CHANNELS 3  Xrotation Yrotation Zrotation
								JOINT right_lowarm_twist
								{
									OFFSET	110.7	-3.89999	13.6
									CHANNELS 3  Xrotation Yrotation Zrotation
									JOINT right_hand
									{
										OFFSET	110.7	-3.89999	13.6
										CHANNELS 3  Xrotation Yrotation Zrotation
										JOINT right_ee
										{
											OFFSET	80.8	-5.10001	12.1
											CHANNELS 3  Xrotation Yrotation Zrotation
											End Site
											{
												OFFSET	1	0	0
											}
										}
									}
								}
							}
						}
					}
				}
			}
		}
	}
	JOINT left_hip
	{
		OFFSET	-82.8	-127.5	0.300001
		CHANNELS 3  Xrotation Yrotation Zrotation
		JOINT left_knee
		{
			OFFSET	-28.2	-396.7	2.2
			CHANNELS 3  Xrotation Yrotation Zrotation
			JOINT left_ankle
			{
				OFFSET	-11.7	-411.3	35.4
				CHANNELS 3  Xrotation Yrotation Zrotation
				JOINT left_toes
				{
					OFFSET	0	-60	-88.6
					CHANNELS 3  Xrotation Yrotation Zrotation
					JOINT left_foot_ee
					{
						OFFSET	-22.5	-16.5	-42.2
						CHANNELS 3  Xrotation Yrotation Zrotation
						End Site
						{
							OFFSET	1	0	0
						}
					}
				}
			}
		}
	}
	JOINT right_hip
	{
		OFFSET	82.8	-127.5	0.300001
		CHANNELS 3  Xrotation Yrotation Zrotation
		JOINT right_knee
		{
			OFFSET	28.2	-396.7	2.2
			CHANNELS 3  Xrotation Yrotation Zrotation
			JOINT right_ankle
			{
				OFFSET	11.7	-411.3	35.4
				CHANNELS 3  Xrotation Yrotation Zrotation
				JOINT right_toes
				{
					OFFSET	0	-60	-88.6
					CHANNELS 3  Xrotation Yrotation Zrotation
					JOINT right_foot_ee
					{
						OFFSET	22.5	-16.5	-42.2
						CHANNELS 3  Xrotation Yrotation Zrotation
						End Site
						{
							OFFSET	1	0	0
						}
					}
				}
			}
		}
	}
}
MOTION
Frames: 9
Frame Time: 0.02
3177.02 653.055 -1669.29 25.0905489565 57.7893690673 -15.2711754913 -7.94903 0.560764 0.851797 -7.94877 0.505428 0.885751 -7.93948 0.170781 1.0054 -7.94075 0.327414 0.965816 -7.71726 12.2194 2.52968 -7.74238 21.0104 5.14197 -0.0 0.0 -0.0 6.45126 24.8067 11.5509 -14.6573 -5.63682 64.2559 0.982892 -25.9608 0.226569 -75.6524 -7.2682 5.31712 2.60538 9.39899 21.1761 -0.0 0.0 -0.0 13.0146 27.8903 -25.4749 11.1939 22.4016 -52.5019 1.95657 44.0999 -0.792554 80.9278 3.94593 8.6612 0.542016 -8.11874 -6.89983 0.0 0.0 0.0 34.9054 47.9974 -32.3224 -8.90228 0.262903 1.33956 -6.97352 -28.7252 1.30226 -11.2981 0.0 0.0 -0.0 0.0 -0.0 -39.1591 37.9485 0.98516 -6.23884 -0.206136 -0.934818 24.0764 -27.0777 3.43608 -10.212 0.0 0.0 0.0 0.0 0.0 
3156.47003321 657.073 -1670.23265048 25.1279712976 57.5085776534 -14.8851116449 -8.0118 0.563426 0.889152 -8.0115 0.505707 0.9232 -8.00176 0.157061 1.04084 -8.00313 0.319463 1.00298 -8.40643 12.1258 2.88223 -8.4569 20.6859 5.58707 -0.0 0.0 -0.0 6.511 25.2962 11.5906 -14.6633 -6.13188 63.3376 0.962317 -25.4869 0.217639 -75.2509 -7.21692 5.31844 2.09039 10.4342 18.0003 -0.0 0.0 -0.0 13.0182 27.48 -25.5367 11.0914 23.841 -53.0014 1.82897 42.1731 -0.705297 81.4862 4.01097 8.69132 -0.402649 -11.5281 -2.19962 0.0 0.0 0.0 35.4709 48.9849 -33.4972 -9.33959 0.270422 1.40624 -6.1339 -27.4675 1.12494 -10.6269 0.0 0.0 -0.0 0.0 -0.0 -39.449 38.0616 0.617141 -7.74524 -0.240555 -1.16342 25.5609 -27.6802 3.6377 -10.5086 0.0 0.0 0.0 0.0 0.0 
3156.46621095 657.073 -1670.14526641 25.2915953356 57.7289890127 -15.0788629824 -8.0118 0.563426 0.889152 -8.0115 0.505707 0.9232 -8.00176 0.157061 1.04084 -8.00313 0.319463 1.00298 -8.40643 12.1258 2.88223 -8.4569 20.6859 5.58707 -0.0 0.0 -0.0 6.511 25.2962 11.5906 -14.6633 -6.13188 63.3376 0.962317 -25.4869 0.217639 -75.2509 -7.21692 5.31844 2.09039 10.4342 18.0003 -0.0 0.0 -0.0 13.0182 27.48 -25.5367 11.0914 23.841 -53.0014 1.82897 42.1731 -0.705297 81.4862 4.01097 8.69132 -0.402649 -11.5281 -2.19962 0.0 0.0 0.0 35.4709 48.9849 -33.4972 -9.33959 0.270422 1.40624 -6.1339 -27.4675 1.12494 -10.6269 0.0 0.0 -0.0 0.0 -0.0 -39.449 38.0616 0.617141 -7.74524 -0.240555 -1.16342 25.5609 -27.6802 3.6377 -10.5086 0.0 0.0 0.0 0.0 0.0 
3143.92008746 651.954 -1674.71064494 25.1404169054 57.2597366283 -15.0205459828 -7.93498 0.538792 0.951044 -7.9346 0.477186 0.983398 -7.92464 0.111021 1.0874 -7.92619 0.281352 1.05622 -9.45004 11.9133 3.41955 -9.53171 20.0658 6.23819 -0.0 0.0 -0.0 6.69464 25.3705 11.8352 -14.0931 -7.23897 61.671 0.935967 -24.8745 0.206428 -74.6738 -7.14319 5.31969 1.33339 11.954 13.5027 -0.0 0.0 -0.0 13.0128 26.8908 -25.599 11.9136 26.2418 -53.6284 1.68415 39.8342 -0.610259 82.3969 4.11763 8.73907 -1.79663 -16.432 4.31917 0.0 0.0 0.0 35.9315 50.5204 -35.1461 -9.96078 0.280227 1.50106 -4.92093 -25.5922 0.879645 -9.66802 0.0 0.0 -0.0 0.0 -0.0 -38.4808 38.2738 -0.433706 -9.14665 -0.267167 -1.37682 27.6665 -28.2531 3.91361 -10.9249 0.0 0.0 0.0 0.0 0.0 
3143.8827811 651.954 -1674.4777091 25.4098946206 57.6241415307 -15.3402674718 -7.93498 0.538792 0.951044 -7.9346 0.477186 0.983398 -7.92464 0.111021 1.0874 -7.92619 0.281352 1.05622 -9.45004 11.9133 3.41955 -9.53171 20.0658 6.23819 -0.0 0.0 -0.0 6.69464 25.3705 11.8352 -14.0931 -7.23897 61.671 0.935967 -24.8745 0.206428 -74.6738 -7.14319 5.31969 1.33339 11.954 13.5027 -0.0 0.0 -0.0 13.0128 26.8908 -25.599 11.9136 26.2418 -53.6284 1.68415 39.8342 -0.610259 82.3969 4.11763 8.73907 -1.79663 -16.432 4.31917 0.0 0.0 0.0 35.9315 50.5204 -35.1461 -9.96078 0.280227 1.50106 -4.92093 -25.5922 0.879645 -9.66802 0.0 0.0 -0.0 0.0 -0.0 -38.4808 38.2738 -0.433706 -9.14665 -0.267167 -1.37682 27.6665 -28.2531 3.91361 -10.9249 0.0 0.0 0.0 0.0 0.0 
3107.64088138 665.103 -1680.90059707 23.780296102 56.1850263354 -13.3932701542 -7.87034 0.542241 1.09597 -7.86979 0.471407 1.12825 -7.85825 0.057332 1.22142 -7.86024 0.249499 1.19704 -10.3077 10.4236 2.14927 -10.4171 18.2195 4.76672 -0.0 0.0 -0.0 7.53692 23.7086 13.1893 -12.7235 -7.81814 58.4937 0.770812 -20.8987 0.142159 -73.6156 -7.00796 5.32004 -0.334319 15.3586 4.20689 -0.0 0.0 -0.0 13.516 22.3876 -27.2566 11.6255 28.8756 -55.5349 1.36215 34.0085 -0.416581 82.2338 4.09848 8.73064 -3.73077 -22.1317 12.9731 0.0 0.0 0.0 36.2452 52.8412 -37.5241 -12.1526 0.306598 1.83631 -1.28841 -23.9112 0.223923 -6.96369 0.0 0.0 -0.0 0.0 -0.0 -36.6084 39.0033 -0.202962 -17.8448 -0.315065 -2.70927 32.8982 -26.2429 4.46902 -11.4271 0.0 0.0 0.0 0.0 0.0 
3107.74953607 665.103 -1681.53217679 23.4707873798 55.7067883281 -13.0197007887 -7.87034 0.542241 1.09597 -7.86979 0.471407 1.12825 -7.85825 0.057332 1.22142 -7.86024 0.249499 1.19704 -10.3077 10.4236 2.14927 -10.4171 18.2195 4.76672 -0.0 0.0 -0.0 7.53692 23.7086 13.1893 -12.7235 -7.81814 58.4937 0.770812 -20.8987 0.142159 -73.6156 -7.00796 5.32004 -0.334319 15.3586 4.20689 -0.0 0.0 -0.0 13.516 22.3876 -27.2566 11.6255 28.8756 -55.5349 1.36215 34.0085 -0.416581 82.2338 4.09848 8.73064 -3.73077 -22.1317 12.9731 0.0 0.0 0.0 36.2452 52.8412 -37.5241 -12.1526 0.306598 1.83631 -1.28841 -23.9112 0.223923 -6.96369 0.0 0.0 -0.0 0.0 -0.0 -36.6084 39.0033 -0.202962 -17.8448 -0.315065 -2.70927 32.8982 -26.2429 4.46902 -11.4271 0.0 0.0 0.0 0.0 0.0 
3107.85626515 665.103 -1682.12143978 23.1898975278 55.2588974918 -12.6787999938 -7.87034 0.542241 1.09597 -7.86979 0.471407 1.12825 -7.85825 0.057332 1.22142 -7.86024 0.249499 1.19704 -10.3077 10.4236 2.14927 -10.4171 18.2195 4.76672 -0.0 0.0 -0.0 7.53692 23.7086 13.1893 -12.7235 -7.81814 58.4937 0.770812 -20.8987 0.142159 -73.6156 -7.00796 5.32004 -0.334319 15.3586 4.20689 -0.0 0.0 -0.0 13.516 22.3876 -27.2566 11.6255 28.8756 -55.5349 1.36215 34.0085 -0.416581 82.2338 4.09848 8.73064 -3.73077 -22.1317 12.9731 0.0 0.0 0.0 36.2452 52.8412 -37.5241 -12.1526 0.306598 1.83631 -1.28841 -23.9112 0.223923 -6.96369 0.0 0.0 -0.0 0.0 -0.0 -36.6084 39.0033 -0.202962 -17.8448 -0.315065 -2.70927 32.8982 -26.2429 4.46902 -11.4271 0.0 0.0 0.0 0.0 0.0 
3107.9116308 665.103 -1682.41636169 23.0520825582 55.0341160179 -12.5108594835 -7.87034 0.542241 1.09597 -7.86979 0.471407 1.12825 -7.85825 0.057332 1.22142 -7.86024 0.249499 1.19704 -10.3077 10.4236 2.14927 -10.4171 18.2195 4.76672 -0.0 0.0 -0.0 7.53692 23.7086 13.1893 -12.7235 -7.81814 58.4937 0.770812 -20.8987 0.142159 -73.6156 -7.00796 5.32004 -0.334319 15.3586 4.20689 -0.0 0.0 -0.0 13.516 22.3876 -27.2566 11.6255 28.8756 -55.5349 1.36215 34.0085 -0.416581 82.2338 4.09848 8.73064 -3.73077 -22.1317 12.9731 0.0 0.0 0.0 36.2452 52.8412 -37.5241 -12.1526 0.306598 1.83631 -1.28841 -23.9112 0.223923 -6.96369 0.0 0.0 -0.0 0.0 -0.0 -36.6084 39.0033 -0.202962 -17.8448 -0.315065 -2.70927 32.8982 -26.2429 4.46902 -11.4271 0.0 0.0 0.0 0.0 0.0 
